<?xml version="1.0" standalone="no"?>
<!DOCTYPE svg PUBLIC "-//W3C//DTD SVG 20010904//EN"
 "http://www.w3.org/TR/2001/REC-SVG-20010904/DTD/svg10.dtd">
<svg version="1.0" xmlns="http://www.w3.org/2000/svg"
 width="637.000000pt" height="640.000000pt" viewBox="0 0 637.000000 640.000000"
 preserveAspectRatio="xMidYMid meet">

<g transform="translate(0.000000,640.000000) scale(0.100000,-0.100000)"
fill="#000000" stroke="none">
<path d="M2870 6379 c-643 -70 -1230 -318 -1720 -727 -96 -80 -302 -285 -384
-382 -334 -395 -560 -842 -675 -1330 -62 -265 -85 -467 -85 -745 1 -1004 458
-1924 1259 -2538 466 -357 1024 -577 1620 -638 142 -14 460 -14 600 0 785 81
1488 431 2027 1007 387 415 666 951 782 1499 96 461 96 889 0 1350 -98 465
-318 929 -624 1315 -107 135 -375 403 -510 510 -444 352 -953 573 -1525 662
-149 23 -615 34 -765 17z m-162 -888 c17 -12 43 -47 59 -79 l28 -57 0 -487 0
-488 408 0 407 0 0 484 c0 510 1 522 48 584 38 51 80 74 129 69 58 -6 101 -40
132 -106 l26 -56 3 -487 3 -488 342 0 c335 0 343 -1 381 -23 25 -14 50 -41 70
-77 28 -50 31 -63 31 -140 0 -94 -18 -141 -73 -193 -38 -37 -85 -47 -200 -46
l-93 2 1 -464 c0 -255 -4 -500 -10 -544 -23 -189 -165 -353 -345 -399 -47 -13
-122 -16 -376 -16 -175 0 -324 -3 -332 -6 -13 -4 -9 -14 18 -50 19 -24 40 -61
46 -82 7 -22 15 -137 18 -282 5 -191 10 -253 22 -280 22 -48 92 -109 267 -233
158 -112 259 -209 363 -349 70 -94 129 -209 129 -250 0 -120 -209 -74 -485
106 -54 35 -146 116 -262 228 -98 95 -212 201 -254 235 -111 90 -115 101 -110
303 9 371 7 452 -13 504 -10 27 -34 66 -53 87 -62 69 -64 69 -377 69 -221 0
-294 3 -341 15 -173 45 -316 205 -344 385 -7 38 -11 262 -11 545 l0 480 -72
-3 c-117 -6 -174 5 -214 40 -60 53 -79 101 -79 198 0 101 25 164 83 208 l35
27 374 3 373 3 0 490 c0 527 0 530 53 588 60 65 132 77 195 32z"/>
</g>
</svg>
